<mxfile host="app.diagrams.net" modified="2020-10-12T12:43:42.144Z" agent="5.0 (Windows NT 10.0; Win64; x64) AppleWebKit/537.36 (KHTML, like Gecko) Chrome/86.0.4240.75 Safari/537.36" etag="3BBYA2YZ0CRBAQij9Gye" version="13.7.9" type="github">
  <diagram id="R2lEEEUBdFMjLlhIrx00" name="Page-1">
    <mxGraphModel dx="2716" dy="2104" grid="1" gridSize="10" guides="1" tooltips="1" connect="1" arrows="1" fold="1" page="1" pageScale="1" pageWidth="850" pageHeight="1100" math="0" shadow="0" extFonts="Permanent Marker^https://fonts.googleapis.com/css?family=Permanent+Marker">
      <root>
        <mxCell id="0" />
        <mxCell id="1" parent="0" />
        <mxCell id="_s9oZ-bbM6Bx9j_4jCta-14" value="M" style="edgeStyle=orthogonalEdgeStyle;rounded=0;orthogonalLoop=1;jettySize=auto;html=1;entryX=0;entryY=0.5;entryDx=0;entryDy=0;" edge="1" parent="1" source="_s9oZ-bbM6Bx9j_4jCta-1" target="_s9oZ-bbM6Bx9j_4jCta-13">
          <mxGeometry relative="1" as="geometry" />
        </mxCell>
        <mxCell id="_s9oZ-bbM6Bx9j_4jCta-1" value="mengikuti" style="rhombus;whiteSpace=wrap;html=1;" vertex="1" parent="1">
          <mxGeometry x="440" y="130" width="80" height="80" as="geometry" />
        </mxCell>
        <mxCell id="_s9oZ-bbM6Bx9j_4jCta-5" style="edgeStyle=orthogonalEdgeStyle;rounded=0;orthogonalLoop=1;jettySize=auto;html=1;entryX=0.5;entryY=0;entryDx=0;entryDy=0;" edge="1" parent="1" source="_s9oZ-bbM6Bx9j_4jCta-4" target="_s9oZ-bbM6Bx9j_4jCta-1">
          <mxGeometry relative="1" as="geometry" />
        </mxCell>
        <mxCell id="_s9oZ-bbM6Bx9j_4jCta-4" value="status absensi" style="ellipse;whiteSpace=wrap;html=1;" vertex="1" parent="1">
          <mxGeometry x="350" y="-20" width="120" height="80" as="geometry" />
        </mxCell>
        <mxCell id="_s9oZ-bbM6Bx9j_4jCta-7" style="edgeStyle=orthogonalEdgeStyle;rounded=0;orthogonalLoop=1;jettySize=auto;html=1;entryX=0.5;entryY=0;entryDx=0;entryDy=0;" edge="1" parent="1" source="_s9oZ-bbM6Bx9j_4jCta-6" target="_s9oZ-bbM6Bx9j_4jCta-1">
          <mxGeometry relative="1" as="geometry" />
        </mxCell>
        <mxCell id="_s9oZ-bbM6Bx9j_4jCta-6" value="tanggal kegiatan" style="ellipse;whiteSpace=wrap;html=1;" vertex="1" parent="1">
          <mxGeometry x="510" y="-20" width="120" height="80" as="geometry" />
        </mxCell>
        <mxCell id="_s9oZ-bbM6Bx9j_4jCta-15" style="edgeStyle=orthogonalEdgeStyle;rounded=0;orthogonalLoop=1;jettySize=auto;html=1;entryX=1;entryY=0.5;entryDx=0;entryDy=0;" edge="1" parent="1" source="_s9oZ-bbM6Bx9j_4jCta-8" target="_s9oZ-bbM6Bx9j_4jCta-13">
          <mxGeometry relative="1" as="geometry" />
        </mxCell>
        <mxCell id="_s9oZ-bbM6Bx9j_4jCta-65" value="1" style="edgeLabel;html=1;align=center;verticalAlign=middle;resizable=0;points=[];" vertex="1" connectable="0" parent="_s9oZ-bbM6Bx9j_4jCta-15">
          <mxGeometry x="-0.4903" y="2" relative="1" as="geometry">
            <mxPoint as="offset" />
          </mxGeometry>
        </mxCell>
        <mxCell id="_s9oZ-bbM6Bx9j_4jCta-17" value="N" style="edgeStyle=orthogonalEdgeStyle;rounded=0;orthogonalLoop=1;jettySize=auto;html=1;entryX=0.5;entryY=0;entryDx=0;entryDy=0;" edge="1" parent="1" source="_s9oZ-bbM6Bx9j_4jCta-8" target="_s9oZ-bbM6Bx9j_4jCta-16">
          <mxGeometry relative="1" as="geometry" />
        </mxCell>
        <mxCell id="_s9oZ-bbM6Bx9j_4jCta-8" value="memberi" style="rhombus;whiteSpace=wrap;html=1;" vertex="1" parent="1">
          <mxGeometry x="710" y="250" width="80" height="80" as="geometry" />
        </mxCell>
        <mxCell id="_s9oZ-bbM6Bx9j_4jCta-12" value="" style="edgeStyle=orthogonalEdgeStyle;rounded=0;orthogonalLoop=1;jettySize=auto;html=1;" edge="1" parent="1" source="_s9oZ-bbM6Bx9j_4jCta-11" target="_s9oZ-bbM6Bx9j_4jCta-1">
          <mxGeometry relative="1" as="geometry">
            <Array as="points">
              <mxPoint x="380" y="170" />
              <mxPoint x="380" y="170" />
            </Array>
          </mxGeometry>
        </mxCell>
        <mxCell id="_s9oZ-bbM6Bx9j_4jCta-64" value="N" style="edgeLabel;html=1;align=center;verticalAlign=middle;resizable=0;points=[];" vertex="1" connectable="0" parent="_s9oZ-bbM6Bx9j_4jCta-12">
          <mxGeometry x="0.1735" relative="1" as="geometry">
            <mxPoint as="offset" />
          </mxGeometry>
        </mxCell>
        <mxCell id="_s9oZ-bbM6Bx9j_4jCta-11" value="mahasiswa" style="rounded=0;whiteSpace=wrap;html=1;" vertex="1" parent="1">
          <mxGeometry x="220" y="140" width="120" height="60" as="geometry" />
        </mxCell>
        <mxCell id="_s9oZ-bbM6Bx9j_4jCta-13" value="Kegiatan" style="rounded=0;whiteSpace=wrap;html=1;" vertex="1" parent="1">
          <mxGeometry x="610" y="140" width="120" height="60" as="geometry" />
        </mxCell>
        <mxCell id="_s9oZ-bbM6Bx9j_4jCta-16" value="Tugas" style="rounded=0;whiteSpace=wrap;html=1;" vertex="1" parent="1">
          <mxGeometry x="690" y="430" width="120" height="60" as="geometry" />
        </mxCell>
        <mxCell id="_s9oZ-bbM6Bx9j_4jCta-19" value="1" style="edgeStyle=orthogonalEdgeStyle;rounded=0;orthogonalLoop=1;jettySize=auto;html=1;" edge="1" parent="1" source="_s9oZ-bbM6Bx9j_4jCta-18" target="_s9oZ-bbM6Bx9j_4jCta-16">
          <mxGeometry relative="1" as="geometry" />
        </mxCell>
        <mxCell id="_s9oZ-bbM6Bx9j_4jCta-21" style="edgeStyle=orthogonalEdgeStyle;rounded=0;orthogonalLoop=1;jettySize=auto;html=1;entryX=1;entryY=0.5;entryDx=0;entryDy=0;" edge="1" parent="1" source="_s9oZ-bbM6Bx9j_4jCta-18" target="_s9oZ-bbM6Bx9j_4jCta-20">
          <mxGeometry relative="1" as="geometry" />
        </mxCell>
        <mxCell id="_s9oZ-bbM6Bx9j_4jCta-66" value="N" style="edgeLabel;html=1;align=center;verticalAlign=middle;resizable=0;points=[];" vertex="1" connectable="0" parent="_s9oZ-bbM6Bx9j_4jCta-21">
          <mxGeometry x="-0.1872" y="-1" relative="1" as="geometry">
            <mxPoint as="offset" />
          </mxGeometry>
        </mxCell>
        <mxCell id="_s9oZ-bbM6Bx9j_4jCta-18" value="Terdiri dari" style="rhombus;whiteSpace=wrap;html=1;" vertex="1" parent="1">
          <mxGeometry x="540" y="420" width="80" height="80" as="geometry" />
        </mxCell>
        <mxCell id="_s9oZ-bbM6Bx9j_4jCta-25" style="edgeStyle=orthogonalEdgeStyle;rounded=0;orthogonalLoop=1;jettySize=auto;html=1;entryX=1;entryY=0.5;entryDx=0;entryDy=0;" edge="1" parent="1" source="_s9oZ-bbM6Bx9j_4jCta-20" target="_s9oZ-bbM6Bx9j_4jCta-24">
          <mxGeometry relative="1" as="geometry" />
        </mxCell>
        <mxCell id="_s9oZ-bbM6Bx9j_4jCta-67" value="1" style="edgeLabel;html=1;align=center;verticalAlign=middle;resizable=0;points=[];" vertex="1" connectable="0" parent="_s9oZ-bbM6Bx9j_4jCta-25">
          <mxGeometry x="-0.1508" y="1" relative="1" as="geometry">
            <mxPoint as="offset" />
          </mxGeometry>
        </mxCell>
        <mxCell id="_s9oZ-bbM6Bx9j_4jCta-20" value="Soal" style="rounded=0;whiteSpace=wrap;html=1;" vertex="1" parent="1">
          <mxGeometry x="340" y="430" width="120" height="60" as="geometry" />
        </mxCell>
        <mxCell id="_s9oZ-bbM6Bx9j_4jCta-26" style="edgeStyle=orthogonalEdgeStyle;rounded=0;orthogonalLoop=1;jettySize=auto;html=1;" edge="1" parent="1" source="_s9oZ-bbM6Bx9j_4jCta-22" target="_s9oZ-bbM6Bx9j_4jCta-24">
          <mxGeometry relative="1" as="geometry" />
        </mxCell>
        <mxCell id="_s9oZ-bbM6Bx9j_4jCta-68" value="N" style="edgeLabel;html=1;align=center;verticalAlign=middle;resizable=0;points=[];" vertex="1" connectable="0" parent="_s9oZ-bbM6Bx9j_4jCta-26">
          <mxGeometry x="0.1561" relative="1" as="geometry">
            <mxPoint as="offset" />
          </mxGeometry>
        </mxCell>
        <mxCell id="_s9oZ-bbM6Bx9j_4jCta-22" value="Jawaban" style="rounded=0;whiteSpace=wrap;html=1;" vertex="1" parent="1">
          <mxGeometry x="70" y="280" width="120" height="60" as="geometry" />
        </mxCell>
        <mxCell id="_s9oZ-bbM6Bx9j_4jCta-28" value="1" style="edgeStyle=orthogonalEdgeStyle;rounded=0;orthogonalLoop=1;jettySize=auto;html=1;entryX=0;entryY=0.5;entryDx=0;entryDy=0;" edge="1" parent="1" source="_s9oZ-bbM6Bx9j_4jCta-23" target="_s9oZ-bbM6Bx9j_4jCta-11">
          <mxGeometry relative="1" as="geometry" />
        </mxCell>
        <mxCell id="_s9oZ-bbM6Bx9j_4jCta-29" value="N" style="edgeStyle=orthogonalEdgeStyle;rounded=0;orthogonalLoop=1;jettySize=auto;html=1;" edge="1" parent="1" source="_s9oZ-bbM6Bx9j_4jCta-23" target="_s9oZ-bbM6Bx9j_4jCta-22">
          <mxGeometry relative="1" as="geometry" />
        </mxCell>
        <mxCell id="_s9oZ-bbM6Bx9j_4jCta-23" value="Membuat" style="rhombus;whiteSpace=wrap;html=1;" vertex="1" parent="1">
          <mxGeometry x="90" y="130" width="80" height="80" as="geometry" />
        </mxCell>
        <mxCell id="_s9oZ-bbM6Bx9j_4jCta-24" value="Mencocokkan" style="rhombus;whiteSpace=wrap;html=1;" vertex="1" parent="1">
          <mxGeometry x="90" y="420" width="80" height="80" as="geometry" />
        </mxCell>
        <mxCell id="_s9oZ-bbM6Bx9j_4jCta-36" style="edgeStyle=orthogonalEdgeStyle;rounded=0;orthogonalLoop=1;jettySize=auto;html=1;entryX=0.5;entryY=0;entryDx=0;entryDy=0;" edge="1" parent="1" source="_s9oZ-bbM6Bx9j_4jCta-30" target="_s9oZ-bbM6Bx9j_4jCta-11">
          <mxGeometry relative="1" as="geometry" />
        </mxCell>
        <mxCell id="_s9oZ-bbM6Bx9j_4jCta-30" value="Nama" style="ellipse;whiteSpace=wrap;html=1;" vertex="1" parent="1">
          <mxGeometry x="90" y="10" width="120" height="80" as="geometry" />
        </mxCell>
        <mxCell id="_s9oZ-bbM6Bx9j_4jCta-34" style="edgeStyle=orthogonalEdgeStyle;rounded=0;orthogonalLoop=1;jettySize=auto;html=1;" edge="1" parent="1" source="_s9oZ-bbM6Bx9j_4jCta-31" target="_s9oZ-bbM6Bx9j_4jCta-11">
          <mxGeometry relative="1" as="geometry" />
        </mxCell>
        <mxCell id="_s9oZ-bbM6Bx9j_4jCta-31" value="&lt;u&gt;NIM&lt;/u&gt;" style="ellipse;whiteSpace=wrap;html=1;" vertex="1" parent="1">
          <mxGeometry x="220" y="-90" width="120" height="80" as="geometry" />
        </mxCell>
        <mxCell id="_s9oZ-bbM6Bx9j_4jCta-40" style="edgeStyle=orthogonalEdgeStyle;rounded=0;orthogonalLoop=1;jettySize=auto;html=1;entryX=0.5;entryY=0;entryDx=0;entryDy=0;" edge="1" parent="1" source="_s9oZ-bbM6Bx9j_4jCta-37" target="_s9oZ-bbM6Bx9j_4jCta-13">
          <mxGeometry relative="1" as="geometry" />
        </mxCell>
        <mxCell id="_s9oZ-bbM6Bx9j_4jCta-37" value="&lt;u&gt;ID kegiatan&lt;/u&gt;" style="ellipse;whiteSpace=wrap;html=1;" vertex="1" parent="1">
          <mxGeometry x="610" y="-120" width="120" height="80" as="geometry" />
        </mxCell>
        <mxCell id="_s9oZ-bbM6Bx9j_4jCta-41" style="edgeStyle=orthogonalEdgeStyle;rounded=0;orthogonalLoop=1;jettySize=auto;html=1;" edge="1" parent="1" source="_s9oZ-bbM6Bx9j_4jCta-38">
          <mxGeometry relative="1" as="geometry">
            <mxPoint x="670" y="140" as="targetPoint" />
          </mxGeometry>
        </mxCell>
        <mxCell id="_s9oZ-bbM6Bx9j_4jCta-38" value="Nama Kegiatan" style="ellipse;whiteSpace=wrap;html=1;" vertex="1" parent="1">
          <mxGeometry x="710" y="-40" width="120" height="80" as="geometry" />
        </mxCell>
        <mxCell id="_s9oZ-bbM6Bx9j_4jCta-42" style="edgeStyle=orthogonalEdgeStyle;rounded=0;orthogonalLoop=1;jettySize=auto;html=1;entryX=0.5;entryY=0;entryDx=0;entryDy=0;" edge="1" parent="1" source="_s9oZ-bbM6Bx9j_4jCta-39" target="_s9oZ-bbM6Bx9j_4jCta-13">
          <mxGeometry relative="1" as="geometry" />
        </mxCell>
        <mxCell id="_s9oZ-bbM6Bx9j_4jCta-39" value="Deskripsi Kegiatan" style="ellipse;whiteSpace=wrap;html=1;" vertex="1" parent="1">
          <mxGeometry x="820" y="40" width="120" height="80" as="geometry" />
        </mxCell>
        <mxCell id="_s9oZ-bbM6Bx9j_4jCta-47" style="edgeStyle=orthogonalEdgeStyle;rounded=0;orthogonalLoop=1;jettySize=auto;html=1;" edge="1" parent="1" source="_s9oZ-bbM6Bx9j_4jCta-43" target="_s9oZ-bbM6Bx9j_4jCta-16">
          <mxGeometry relative="1" as="geometry" />
        </mxCell>
        <mxCell id="_s9oZ-bbM6Bx9j_4jCta-43" value="Nama Tugas" style="ellipse;whiteSpace=wrap;html=1;" vertex="1" parent="1">
          <mxGeometry x="560" y="500" width="120" height="80" as="geometry" />
        </mxCell>
        <mxCell id="_s9oZ-bbM6Bx9j_4jCta-50" style="edgeStyle=orthogonalEdgeStyle;rounded=0;orthogonalLoop=1;jettySize=auto;html=1;" edge="1" parent="1" source="_s9oZ-bbM6Bx9j_4jCta-44">
          <mxGeometry relative="1" as="geometry">
            <mxPoint x="750" y="490" as="targetPoint" />
          </mxGeometry>
        </mxCell>
        <mxCell id="_s9oZ-bbM6Bx9j_4jCta-44" value="Tipe Tugas" style="ellipse;whiteSpace=wrap;html=1;" vertex="1" parent="1">
          <mxGeometry x="810" y="500" width="120" height="80" as="geometry" />
        </mxCell>
        <mxCell id="_s9oZ-bbM6Bx9j_4jCta-51" style="edgeStyle=orthogonalEdgeStyle;rounded=0;orthogonalLoop=1;jettySize=auto;html=1;entryX=0.5;entryY=1;entryDx=0;entryDy=0;" edge="1" parent="1" source="_s9oZ-bbM6Bx9j_4jCta-46" target="_s9oZ-bbM6Bx9j_4jCta-16">
          <mxGeometry relative="1" as="geometry" />
        </mxCell>
        <mxCell id="_s9oZ-bbM6Bx9j_4jCta-46" value="&lt;u&gt;ID Tugas&lt;/u&gt;" style="ellipse;whiteSpace=wrap;html=1;" vertex="1" parent="1">
          <mxGeometry x="690" y="570" width="120" height="80" as="geometry" />
        </mxCell>
        <mxCell id="_s9oZ-bbM6Bx9j_4jCta-56" style="edgeStyle=orthogonalEdgeStyle;rounded=0;orthogonalLoop=1;jettySize=auto;html=1;entryX=0.5;entryY=1;entryDx=0;entryDy=0;" edge="1" parent="1" source="_s9oZ-bbM6Bx9j_4jCta-52" target="_s9oZ-bbM6Bx9j_4jCta-20">
          <mxGeometry relative="1" as="geometry" />
        </mxCell>
        <mxCell id="_s9oZ-bbM6Bx9j_4jCta-52" value="&lt;u&gt;ID Soal&lt;/u&gt;" style="ellipse;whiteSpace=wrap;html=1;" vertex="1" parent="1">
          <mxGeometry x="240" y="570" width="120" height="80" as="geometry" />
        </mxCell>
        <mxCell id="_s9oZ-bbM6Bx9j_4jCta-55" style="edgeStyle=orthogonalEdgeStyle;rounded=0;orthogonalLoop=1;jettySize=auto;html=1;entryX=0.5;entryY=1;entryDx=0;entryDy=0;" edge="1" parent="1" source="_s9oZ-bbM6Bx9j_4jCta-53" target="_s9oZ-bbM6Bx9j_4jCta-20">
          <mxGeometry relative="1" as="geometry" />
        </mxCell>
        <mxCell id="_s9oZ-bbM6Bx9j_4jCta-53" value="Pertanyaan" style="ellipse;whiteSpace=wrap;html=1;" vertex="1" parent="1">
          <mxGeometry x="440" y="570" width="120" height="80" as="geometry" />
        </mxCell>
        <mxCell id="_s9oZ-bbM6Bx9j_4jCta-58" style="edgeStyle=orthogonalEdgeStyle;rounded=0;orthogonalLoop=1;jettySize=auto;html=1;entryX=0;entryY=0.5;entryDx=0;entryDy=0;" edge="1" parent="1" source="_s9oZ-bbM6Bx9j_4jCta-57" target="_s9oZ-bbM6Bx9j_4jCta-24">
          <mxGeometry relative="1" as="geometry" />
        </mxCell>
        <mxCell id="_s9oZ-bbM6Bx9j_4jCta-57" value="NILAI" style="ellipse;whiteSpace=wrap;html=1;" vertex="1" parent="1">
          <mxGeometry x="-10" y="520" width="120" height="80" as="geometry" />
        </mxCell>
        <mxCell id="_s9oZ-bbM6Bx9j_4jCta-61" style="edgeStyle=orthogonalEdgeStyle;rounded=0;orthogonalLoop=1;jettySize=auto;html=1;entryX=0;entryY=0.5;entryDx=0;entryDy=0;" edge="1" parent="1" source="_s9oZ-bbM6Bx9j_4jCta-59" target="_s9oZ-bbM6Bx9j_4jCta-22">
          <mxGeometry relative="1" as="geometry" />
        </mxCell>
        <mxCell id="_s9oZ-bbM6Bx9j_4jCta-59" value="&lt;u&gt;ID Jawaban&lt;/u&gt;" style="ellipse;whiteSpace=wrap;html=1;" vertex="1" parent="1">
          <mxGeometry x="-150" y="210" width="120" height="80" as="geometry" />
        </mxCell>
        <mxCell id="_s9oZ-bbM6Bx9j_4jCta-62" style="edgeStyle=orthogonalEdgeStyle;rounded=0;orthogonalLoop=1;jettySize=auto;html=1;entryX=0;entryY=0.5;entryDx=0;entryDy=0;" edge="1" parent="1" source="_s9oZ-bbM6Bx9j_4jCta-60" target="_s9oZ-bbM6Bx9j_4jCta-22">
          <mxGeometry relative="1" as="geometry" />
        </mxCell>
        <mxCell id="_s9oZ-bbM6Bx9j_4jCta-60" value="Deskripsi" style="ellipse;whiteSpace=wrap;html=1;" vertex="1" parent="1">
          <mxGeometry x="-150" y="350" width="120" height="80" as="geometry" />
        </mxCell>
      </root>
    </mxGraphModel>
  </diagram>
</mxfile>
